export default {
    "header": {
      "keySignatures": [],
      "meta": [],
      "name": "",
      "ppq": 96,
      "tempos": [ 
        {
          "bpm": 130.00013000013,
          "ticks": 0
        }
      ],
      "timeSignatures": [
        {
          "ticks": 0,
          "timeSignature": [
            4,
            4
          ],
          "measures": 0
        }
      ]
    },
    "tracks": [
      {
        "channel": 0,
        "controlChanges": {},
        "pitchBends": [],
        "instrument": {
          "family": "piano",
          "number": 0,
          "name": "acoustic grand piano"
        },
        "name": "untitled_REC 1",
        "notes": [
          {
            "duration": 0.2836535624999996,
            "durationTicks": 59,
            "midi": 70,
            "name": "A#4",
            "ticks": 420,
            "time": 2.01922875,
            "velocity": 0.5039370078740157
          },
          {
            "duration": 0.09615375000000004,
            "durationTicks": 20,
            "midi": 67,
            "name": "G4",
            "ticks": 496,
            "time": 2.384613,
            "velocity": 0.5039370078740157
          },
          {
            "duration": 0.12980756249999992,
            "durationTicks": 27,
            "midi": 68,
            "name": "G#4",
            "ticks": 516,
            "time": 2.48076675,
            "velocity": 0.5039370078740157
          },
          {
            "duration": 0.48076874999999974,
            "durationTicks": 100,
            "midi": 63,
            "name": "D#4",
            "ticks": 543,
            "time": 2.6105743125,
            "velocity": 0.5039370078740157
          },
          {
            "duration": 0.0673076250000002,
            "durationTicks": 14,
            "midi": 63,
            "name": "D#4",
            "ticks": 643,
            "time": 3.0913430624999996,
            "velocity": 0.5039370078740157
          },
          {
            "duration": 0.230769,
            "durationTicks": 48,
            "midi": 58,
            "name": "A#3",
            "ticks": 658,
            "time": 3.163458375,
            "velocity": 0.5039370078740157
          },
          {
            "duration": 0.17307675000000033,
            "durationTicks": 36,
            "midi": 56,
            "name": "G#3",
            "ticks": 708,
            "time": 3.4038427499999995,
            "velocity": 0.5039370078740157
          },
          {
            "duration": 0.06730762499999976,
            "durationTicks": 14,
            "midi": 64,
            "name": "E4",
            "ticks": 745,
            "time": 3.5817271875,
            "velocity": 0.5039370078740157
          },
          {
            "duration": 0.2548074374999998,
            "durationTicks": 53,
            "midi": 64,
            "name": "E4",
            "ticks": 760,
            "time": 3.6538424999999997,
            "velocity": 0.5039370078740157
          },
          {
            "duration": 0.09134606250000044,
            "durationTicks": 19,
            "midi": 59,
            "name": "B3",
            "ticks": 814,
            "time": 3.9134576249999995,
            "velocity": 0.5039370078740157
          },
          {
            "duration": 0.4519226249999999,
            "durationTicks": 94,
            "midi": 59,
            "name": "B3",
            "ticks": 834,
            "time": 4.0096113749999995,
            "velocity": 0.5039370078740157
          },
          {
            "duration": 0.05769224999999967,
            "durationTicks": 12,
            "midi": 60,
            "name": "C4",
            "ticks": 929,
            "time": 4.4663416875,
            "velocity": 0.5039370078740157
          },
          {
            "duration": 0.18749981250000047,
            "durationTicks": 39,
            "midi": 60,
            "name": "C4",
            "ticks": 942,
            "time": 4.528841624999999,
            "velocity": 0.5039370078740157
          },
          {
            "duration": 0.27403818749999953,
            "durationTicks": 57,
            "midi": 55,
            "name": "G3",
            "ticks": 982,
            "time": 4.721149124999999,
            "velocity": 0.5039370078740157
          },
          {
            "duration": 0.19230750000000008,
            "durationTicks": 40,
            "midi": 60,
            "name": "C4",
            "ticks": 1040,
            "time": 4.999994999999999,
            "velocity": 0.5039370078740157
          },
          {
            "duration": 0.1730767499999999,
            "durationTicks": 36,
            "midi": 60,
            "name": "C4",
            "ticks": 1081,
            "time": 5.197110187499999,
            "velocity": 0.5039370078740157
          },
          {
            "duration": 0.7692300000000003,
            "durationTicks": 160,
            "midi": 62,
            "name": "D4",
            "ticks": 1118,
            "time": 5.374994624999999,
            "velocity": 0.5039370078740157
          },
          {
            "duration": 0.18749981249999959,
            "durationTicks": 39,
            "midi": 59,
            "name": "B3",
            "ticks": 1278,
            "time": 6.144224625,
            "velocity": 0.5118110236220472
          },
          {
            "duration": 0.07692300000000074,
            "durationTicks": 16,
            "midi": 59,
            "name": "B3",
            "ticks": 1318,
            "time": 6.336532124999999,
            "velocity": 0.5118110236220472
          },
          {
            "duration": 0.19230750000000008,
            "durationTicks": 40,
            "midi": 54,
            "name": "F#3",
            "ticks": 1335,
            "time": 6.418262812499999,
            "velocity": 0.5118110236220472
          },
          {
            "duration": 0.1586536874999993,
            "durationTicks": 33,
            "midi": 60,
            "name": "C4",
            "ticks": 1375,
            "time": 6.610570312499999,
            "velocity": 0.5118110236220472
          },
          {
            "duration": 0.2980766249999993,
            "durationTicks": 62,
            "midi": 59,
            "name": "B3",
            "ticks": 1409,
            "time": 6.7740316875,
            "velocity": 0.5118110236220472
          },
          {
            "duration": 0.05288456249999918,
            "durationTicks": 11,
            "midi": 59,
            "name": "B3",
            "ticks": 1472,
            "time": 7.076916,
            "velocity": 0.5118110236220472
          },
          {
            "duration": 0.2884612499999992,
            "durationTicks": 60,
            "midi": 57,
            "name": "A3",
            "ticks": 1484,
            "time": 7.134608249999999,
            "velocity": 0.5118110236220472
          },
          {
            "duration": 0.08173068750000123,
            "durationTicks": 17,
            "midi": 69,
            "name": "A4",
            "ticks": 1544,
            "time": 7.423069499999999,
            "velocity": 0.5196850393700787
          },
          {
            "duration": 0.25961512499999984,
            "durationTicks": 54,
            "midi": 57,
            "name": "A3",
            "ticks": 1562,
            "time": 7.509607874999999,
            "velocity": 0.5039370078740157
          },
          {
            "duration": 0.40384574999999945,
            "durationTicks": 84,
            "midi": 57,
            "name": "A3",
            "ticks": 1617,
            "time": 7.774030687499999,
            "velocity": 0.5118110236220472
          },
          {
            "duration": 0.38942268750000153,
            "durationTicks": 81,
            "midi": 33,
            "name": "A1",
            "ticks": 1701,
            "time": 8.177876437499998,
            "velocity": 0.5039370078740157
          },
          {
            "duration": 0.08653837499999995,
            "durationTicks": 18,
            "midi": 57,
            "name": "A3",
            "ticks": 1783,
            "time": 8.5721068125,
            "velocity": 0.5118110236220472
          },
          {
            "duration": 0.16346137500000069,
            "durationTicks": 34,
            "midi": 57,
            "name": "A3",
            "ticks": 1802,
            "time": 8.663452874999999,
            "velocity": 0.5118110236220472
          },
          {
            "duration": 0.22115362499999947,
            "durationTicks": 46,
            "midi": 57,
            "name": "A3",
            "ticks": 1838,
            "time": 8.836529624999999,
            "velocity": 0.5118110236220472
          },
          {
            "duration": 0.14903831249999833,
            "durationTicks": 31,
            "midi": 59,
            "name": "B3",
            "ticks": 1885,
            "time": 9.0624909375,
            "velocity": 0.5118110236220472
          },
          {
            "duration": 0.4326918749999997,
            "durationTicks": 90,
            "midi": 59,
            "name": "B3",
            "ticks": 1917,
            "time": 9.2163369375,
            "velocity": 0.5118110236220472
          },
          {
            "duration": 0.06730762499999976,
            "durationTicks": 14,
            "midi": 59,
            "name": "B3",
            "ticks": 2008,
            "time": 9.653836499999999,
            "velocity": 0.5118110236220472
          },
          {
            "duration": 0.2836535624999996,
            "durationTicks": 59,
            "midi": 59,
            "name": "B3",
            "ticks": 2023,
            "time": 9.7259518125,
            "velocity": 0.5196850393700787
          },
          {
            "duration": 0.24038437499999965,
            "durationTicks": 50,
            "midi": 60,
            "name": "C4",
            "ticks": 2083,
            "time": 10.0144130625,
            "velocity": 0.5118110236220472
          },
          {
            "duration": 0.0480768749999978,
            "durationTicks": 10,
            "midi": 60,
            "name": "C4",
            "ticks": 2134,
            "time": 10.259605125,
            "velocity": 0.5196850393700787
          },
          {
            "duration": 0.08653837499999995,
            "durationTicks": 18,
            "midi": 60,
            "name": "C4",
            "ticks": 2145,
            "time": 10.3124896875,
            "velocity": 0.5196850393700787
          },
          {
            "duration": 0.312499687499999,
            "durationTicks": 65,
            "midi": 60,
            "name": "C4",
            "ticks": 2164,
            "time": 10.403835749999999,
            "velocity": 0.5196850393700787
          },
          {
            "duration": 0.14903831249999833,
            "durationTicks": 31,
            "midi": 59,
            "name": "B3",
            "ticks": 2230,
            "time": 10.721143125,
            "velocity": 0.5196850393700787
          },
          {
            "duration": 0.16346137500000069,
            "durationTicks": 34,
            "midi": 60,
            "name": "C4",
            "ticks": 2262,
            "time": 10.874989124999999,
            "velocity": 0.5196850393700787
          },
          {
            "duration": 0.06730762500000154,
            "durationTicks": 14,
            "midi": 60,
            "name": "C4",
            "ticks": 2297,
            "time": 11.043258187499998,
            "velocity": 0.5118110236220472
          },
          {
            "duration": 0.19711518750000145,
            "durationTicks": 41,
            "midi": 62,
            "name": "D4",
            "ticks": 2312,
            "time": 11.115373499999999,
            "velocity": 0.5275590551181102
          },
          {
            "duration": 0.0480768749999978,
            "durationTicks": 10,
            "midi": 62,
            "name": "D4",
            "ticks": 2353,
            "time": 11.3124886875,
            "velocity": 0.5275590551181102
          },
          {
            "duration": 0.057692250000000556,
            "durationTicks": 12,
            "midi": 70,
            "name": "A#4",
            "ticks": 2363,
            "time": 11.360565562499998,
            "velocity": 0.5275590551181102
          },
          {
            "duration": 0.2692305000000008,
            "durationTicks": 56,
            "midi": 62,
            "name": "D4",
            "ticks": 2376,
            "time": 11.423065499999998,
            "velocity": 0.5196850393700787
          },
          {
            "duration": 0.10096143750000053,
            "durationTicks": 21,
            "midi": 64,
            "name": "E4",
            "ticks": 2433,
            "time": 11.697103687499999,
            "velocity": 0.5118110236220472
          },
          {
            "duration": 0.19230750000000008,
            "durationTicks": 40,
            "midi": 59,
            "name": "B3",
            "ticks": 2455,
            "time": 11.802872812499999,
            "velocity": 0.5118110236220472
          },
          {
            "duration": 0.26923049999999904,
            "durationTicks": 56,
            "midi": 59,
            "name": "B3",
            "ticks": 2496,
            "time": 11.999987999999998,
            "velocity": 0.5196850393700787
          },
          {
            "duration": 0.09615374999999915,
            "durationTicks": 20,
            "midi": 60,
            "name": "C4",
            "ticks": 2553,
            "time": 12.274026187499999,
            "velocity": 0.5118110236220472
          },
          {
            "duration": 0.20192287499999928,
            "durationTicks": 42,
            "midi": 60,
            "name": "C4",
            "ticks": 2574,
            "time": 12.374987625,
            "velocity": 0.5196850393700787
          },
          {
            "duration": 0.1634613749999989,
            "durationTicks": 34,
            "midi": 59,
            "name": "B3",
            "ticks": 2617,
            "time": 12.5817181875,
            "velocity": 0.5196850393700787
          },
          {
            "duration": 0.06730762499999976,
            "durationTicks": 14,
            "midi": 59,
            "name": "B3",
            "ticks": 2652,
            "time": 12.749987249999998,
            "velocity": 0.5196850393700787
          },
          {
            "duration": 0.12499987500000032,
            "durationTicks": 26,
            "midi": 59,
            "name": "B3",
            "ticks": 2667,
            "time": 12.822102562499998,
            "velocity": 0.5196850393700787
          },
          {
            "duration": 0.12019218750000071,
            "durationTicks": 25,
            "midi": 57,
            "name": "A3",
            "ticks": 2694,
            "time": 12.951910124999998,
            "velocity": 0.5196850393700787
          },
          {
            "duration": 0.05288456250000095,
            "durationTicks": 11,
            "midi": 57,
            "name": "A3",
            "ticks": 2720,
            "time": 13.076909999999998,
            "velocity": 0.5196850393700787
          },
          {
            "duration": 0.3173073750000004,
            "durationTicks": 66,
            "midi": 57,
            "name": "A3",
            "ticks": 2733,
            "time": 13.139409937499998,
            "velocity": 0.5196850393700787
          },
          {
            "duration": 0.13461524999999952,
            "durationTicks": 28,
            "midi": 68,
            "name": "G#4",
            "ticks": 2800,
            "time": 13.461524999999998,
            "velocity": 0.5275590551181102
          },
          {
            "duration": 0.1778844374999995,
            "durationTicks": 37,
            "midi": 57,
            "name": "A3",
            "ticks": 2829,
            "time": 13.600947937499999,
            "velocity": 0.5354330708661418
          },
          {
            "duration": 0.331730437500001,
            "durationTicks": 69,
            "midi": 52,
            "name": "E3",
            "ticks": 2866,
            "time": 13.778832374999999,
            "velocity": 0.5196850393700787
          },
          {
            "duration": 0.41826881249999914,
            "durationTicks": 87,
            "midi": 56,
            "name": "G#3",
            "ticks": 2935,
            "time": 14.1105628125,
            "velocity": 0.5275590551181102
          },
          {
            "duration": 0.15384600000000148,
            "durationTicks": 32,
            "midi": 57,
            "name": "A3",
            "ticks": 3023,
            "time": 14.533639312499998,
            "velocity": 0.5275590551181102
          },
          {
            "duration": 0.04326918749999997,
            "durationTicks": 9,
            "midi": 57,
            "name": "A3",
            "ticks": 3056,
            "time": 14.692292999999998,
            "velocity": 0.5433070866141733
          },
          {
            "duration": 0.08653837499999995,
            "durationTicks": 18,
            "midi": 56,
            "name": "G#3",
            "ticks": 3066,
            "time": 14.740369874999999,
            "velocity": 0.5354330708661418
          },
          {
            "duration": 0.08173068750000212,
            "durationTicks": 17,
            "midi": 59,
            "name": "B3",
            "ticks": 3085,
            "time": 14.831715937499997,
            "velocity": 0.5354330708661418
          },
          {
            "duration": 0.14903831250000188,
            "durationTicks": 31,
            "midi": 59,
            "name": "B3",
            "ticks": 3103,
            "time": 14.918254312499997,
            "velocity": 0.5275590551181102
          },
          {
            "duration": 0.4182688125000009,
            "durationTicks": 87,
            "midi": 55,
            "name": "G3",
            "ticks": 3135,
            "time": 15.072100312499998,
            "velocity": 0.5433070866141733
          },
          {
            "duration": 0.1442306250000005,
            "durationTicks": 30,
            "midi": 59,
            "name": "B3",
            "ticks": 3223,
            "time": 15.495176812499997,
            "velocity": 0.5196850393700787
          },
          {
            "duration": 0.11538450000000111,
            "durationTicks": 24,
            "midi": 59,
            "name": "B3",
            "ticks": 3254,
            "time": 15.644215124999999,
            "velocity": 0.5354330708661418
          },
          {
            "duration": 0.1394229375000009,
            "durationTicks": 29,
            "midi": 60,
            "name": "C4",
            "ticks": 3279,
            "time": 15.764407312499998,
            "velocity": 0.5354330708661418
          },
          {
            "duration": 0.1538459999999997,
            "durationTicks": 32,
            "midi": 60,
            "name": "C4",
            "ticks": 3309,
            "time": 15.908637937499998,
            "velocity": 0.5275590551181102
          },
          {
            "duration": 0.3461534999999998,
            "durationTicks": 72,
            "midi": 60,
            "name": "C4",
            "ticks": 3341,
            "time": 16.062483937499998,
            "velocity": 0.5275590551181102
          },
          {
            "duration": 0.23076900000000222,
            "durationTicks": 48,
            "midi": 53,
            "name": "F3",
            "ticks": 3413,
            "time": 16.408637437499998,
            "velocity": 0.5275590551181102
          },
          {
            "duration": 0.06730762500000154,
            "durationTicks": 14,
            "midi": 53,
            "name": "F3",
            "ticks": 3462,
            "time": 16.644214124999998,
            "velocity": 0.5354330708661418
          },
          {
            "duration": 0.0961537500000027,
            "durationTicks": 20,
            "midi": 60,
            "name": "C4",
            "ticks": 3477,
            "time": 16.716329437499997,
            "velocity": 0.5354330708661418
          },
          {
            "duration": 0.07692300000000074,
            "durationTicks": 16,
            "midi": 56,
            "name": "G#3",
            "ticks": 3498,
            "time": 16.817290874999998,
            "velocity": 0.5511811023622047
          },
          {
            "duration": 0.10096143750000053,
            "durationTicks": 21,
            "midi": 61,
            "name": "C#4",
            "ticks": 3515,
            "time": 16.8990215625,
            "velocity": 0.5590551181102362
          },
          {
            "duration": 0.09134606249999777,
            "durationTicks": 19,
            "midi": 62,
            "name": "D4",
            "ticks": 3537,
            "time": 17.004790687499998,
            "velocity": 0.5275590551181102
          },
          {
            "duration": 0.08173068750000212,
            "durationTicks": 17,
            "midi": 62,
            "name": "D4",
            "ticks": 3556,
            "time": 17.096136749999996,
            "velocity": 0.5275590551181102
          },
          {
            "duration": 0.2932689374999988,
            "durationTicks": 61,
            "midi": 62,
            "name": "D4",
            "ticks": 3573,
            "time": 17.177867437499998,
            "velocity": 0.5354330708661418
          },
          {
            "duration": 0.25961512499999984,
            "durationTicks": 54,
            "midi": 63,
            "name": "D#4",
            "ticks": 3634,
            "time": 17.471136374999997,
            "velocity": 0.5354330708661418
          },
          {
            "duration": 0.06730762499999798,
            "durationTicks": 14,
            "midi": 59,
            "name": "B3",
            "ticks": 3689,
            "time": 17.735559187499998,
            "velocity": 0.5354330708661418
          },
          {
            "duration": 0.08173068749999857,
            "durationTicks": 17,
            "midi": 59,
            "name": "B3",
            "ticks": 3704,
            "time": 17.807674499999997,
            "velocity": 0.5196850393700787
          },
          {
            "duration": 0.07211531249999936,
            "durationTicks": 15,
            "midi": 59,
            "name": "B3",
            "ticks": 3721,
            "time": 17.889405187499996,
            "velocity": 0.5275590551181102
          },
          {
            "duration": 0.12019218750000249,
            "durationTicks": 25,
            "midi": 59,
            "name": "B3",
            "ticks": 3736,
            "time": 17.961520499999995,
            "velocity": 0.5275590551181102
          },
          {
            "duration": 0.2019228749999975,
            "durationTicks": 42,
            "midi": 60,
            "name": "C4",
            "ticks": 3762,
            "time": 18.086520375,
            "velocity": 0.5275590551181102
          },
          {
            "duration": 0.22115362499999947,
            "durationTicks": 46,
            "midi": 59,
            "name": "B3",
            "ticks": 3805,
            "time": 18.293250937499998,
            "velocity": 0.5275590551181102
          },
          {
            "duration": 0.07211531249999936,
            "durationTicks": 15,
            "midi": 57,
            "name": "A3",
            "ticks": 3852,
            "time": 18.51921225,
            "velocity": 0.5511811023622047
          },
          {
            "duration": 0.08173068750000212,
            "durationTicks": 17,
            "midi": 59,
            "name": "B3",
            "ticks": 3868,
            "time": 18.596135249999996,
            "velocity": 0.5275590551181102
          },
          {
            "duration": 0.08653837499999995,
            "durationTicks": 18,
            "midi": 58,
            "name": "A#3",
            "ticks": 3886,
            "time": 18.682673624999996,
            "velocity": 0.5275590551181102
          },
          {
            "duration": 0.14423062500000228,
            "durationTicks": 30,
            "midi": 57,
            "name": "A3",
            "ticks": 3905,
            "time": 18.774019687499997,
            "velocity": 0.5196850393700787
          },
          {
            "duration": 0.22115362499999947,
            "durationTicks": 46,
            "midi": 57,
            "name": "A3",
            "ticks": 3936,
            "time": 18.923057999999997,
            "velocity": 0.5196850393700787
          },
          {
            "duration": 0.3269227499999978,
            "durationTicks": 68,
            "midi": 57,
            "name": "A3",
            "ticks": 3983,
            "time": 19.1490193125,
            "velocity": 0.5196850393700787
          },
          {
            "duration": 0.15384600000000148,
            "durationTicks": 32,
            "midi": 33,
            "name": "A1",
            "ticks": 4054,
            "time": 19.490365124999997,
            "velocity": 0.5196850393700787
          },
          {
            "duration": 0.05288456250000095,
            "durationTicks": 11,
            "midi": 33,
            "name": "A1",
            "ticks": 4090,
            "time": 19.663441874999997,
            "velocity": 0.5354330708661418
          },
          {
            "duration": 0.05288456250000095,
            "durationTicks": 11,
            "midi": 68,
            "name": "G#4",
            "ticks": 4102,
            "time": 19.721134124999995,
            "velocity": 0.5196850393700787
          },
          {
            "duration": 0.40865343749999994,
            "durationTicks": 85,
            "midi": 33,
            "name": "A1",
            "ticks": 4117,
            "time": 19.7932494375,
            "velocity": 0.5118110236220472
          },
          {
            "duration": 0.1730767499999999,
            "durationTicks": 36,
            "midi": 57,
            "name": "A3",
            "ticks": 4203,
            "time": 20.206710562499996,
            "velocity": 0.5275590551181102
          },
          {
            "duration": 0.05288456250000095,
            "durationTicks": 11,
            "midi": 57,
            "name": "A3",
            "ticks": 4240,
            "time": 20.384594999999997,
            "velocity": 0.5196850393700787
          },
          {
            "duration": 0.048076874999999575,
            "durationTicks": 10,
            "midi": 69,
            "name": "A4",
            "ticks": 4251,
            "time": 20.4374795625,
            "velocity": 0.5196850393700787
          },
          {
            "duration": 0.12980756249999814,
            "durationTicks": 27,
            "midi": 58,
            "name": "A#3",
            "ticks": 4262,
            "time": 20.490364125,
            "velocity": 0.5196850393700787
          },
          {
            "duration": 0.1586536874999993,
            "durationTicks": 33,
            "midi": 59,
            "name": "B3",
            "ticks": 4290,
            "time": 20.624979375,
            "velocity": 0.5196850393700787
          },
          {
            "duration": 0.07211531249999936,
            "durationTicks": 15,
            "midi": 59,
            "name": "B3",
            "ticks": 4324,
            "time": 20.788440749999996,
            "velocity": 0.5196850393700787
          },
          {
            "duration": 0.11538449999999756,
            "durationTicks": 24,
            "midi": 60,
            "name": "C4",
            "ticks": 4340,
            "time": 20.86536375,
            "velocity": 0.5433070866141733
          },
          {
            "duration": 0.32211506249999644,
            "durationTicks": 67,
            "midi": 33,
            "name": "A1",
            "ticks": 4365,
            "time": 20.9855559375,
            "velocity": 0.5118110236220472
          },
          {
            "duration": 0.16826906250000206,
            "durationTicks": 35,
            "midi": 59,
            "name": "B3",
            "ticks": 4432,
            "time": 21.307670999999996,
            "velocity": 0.5196850393700787
          },
          {
            "duration": 0.04807687500000313,
            "durationTicks": 10,
            "midi": 59,
            "name": "B3",
            "ticks": 4468,
            "time": 21.480747749999995,
            "velocity": 0.5196850393700787
          },
          {
            "duration": 0.10096143750000053,
            "durationTicks": 21,
            "midi": 59,
            "name": "B3",
            "ticks": 4479,
            "time": 21.533632312499996,
            "velocity": 0.5354330708661418
          },
          {
            "duration": 0.08173068750000212,
            "durationTicks": 17,
            "midi": 67,
            "name": "G4",
            "ticks": 4501,
            "time": 21.639401437499995,
            "velocity": 0.5433070866141733
          },
          {
            "duration": 0.14423062500000228,
            "durationTicks": 30,
            "midi": 60,
            "name": "C4",
            "ticks": 4519,
            "time": 21.725939812499995,
            "velocity": 0.5354330708661418
          },
          {
            "duration": 0.05769224999999878,
            "durationTicks": 12,
            "midi": 59,
            "name": "B3",
            "ticks": 4550,
            "time": 21.874978125,
            "velocity": 0.5433070866141733
          },
          {
            "duration": 0.5817301874999963,
            "durationTicks": 121,
            "midi": 60,
            "name": "C4",
            "ticks": 4563,
            "time": 21.9374780625,
            "velocity": 0.5275590551181102
          },
          {
            "duration": 0.10576912499999835,
            "durationTicks": 22,
            "midi": 59,
            "name": "B3",
            "ticks": 4685,
            "time": 22.5240159375,
            "velocity": 0.5826771653543307
          },
          {
            "duration": 0.08653837499999995,
            "durationTicks": 18,
            "midi": 61,
            "name": "C#4",
            "ticks": 4708,
            "time": 22.634592749999996,
            "velocity": 0.5354330708661418
          },
          {
            "duration": 0.48076875000000285,
            "durationTicks": 100,
            "midi": 62,
            "name": "D4",
            "ticks": 4726,
            "time": 22.721131124999996,
            "velocity": 0.5354330708661418
          },
          {
            "duration": 0.13461525000000307,
            "durationTicks": 28,
            "midi": 68,
            "name": "G#4",
            "ticks": 4834,
            "time": 23.240361374999996,
            "velocity": 0.5275590551181102
          },
          {
            "duration": 0.22115362499999947,
            "durationTicks": 46,
            "midi": 60,
            "name": "C4",
            "ticks": 4863,
            "time": 23.379784312499996,
            "velocity": 0.5354330708661418
          },
          {
            "duration": 0.288461250000001,
            "durationTicks": 60,
            "midi": 59,
            "name": "B3",
            "ticks": 4910,
            "time": 23.605745624999997,
            "velocity": 0.5196850393700787
          },
          {
            "duration": 0.1298075625000017,
            "durationTicks": 27,
            "midi": 74,
            "name": "D5",
            "ticks": 4971,
            "time": 23.899014562499996,
            "velocity": 0.5039370078740157
          },
          {
            "duration": 0.07211531249999936,
            "durationTicks": 15,
            "midi": 60,
            "name": "C4",
            "ticks": 4999,
            "time": 24.033629812499996,
            "velocity": 0.5196850393700787
          },
          {
            "duration": 0.0528845624999974,
            "durationTicks": 11,
            "midi": 59,
            "name": "B3",
            "ticks": 5015,
            "time": 24.1105528125,
            "velocity": 0.5433070866141733
          },
          {
            "duration": 0.17788443749999772,
            "durationTicks": 37,
            "midi": 80,
            "name": "G#5",
            "ticks": 5027,
            "time": 24.1682450625,
            "velocity": 0.5118110236220472
          },
          {
            "duration": 0.1394229375000009,
            "durationTicks": 29,
            "midi": 79,
            "name": "G5",
            "ticks": 5064,
            "time": 24.346129499999996,
            "velocity": 0.5118110236220472
          },
          {
            "duration": 0.22596131250000084,
            "durationTicks": 47,
            "midi": 58,
            "name": "A#3",
            "ticks": 5094,
            "time": 24.490360125,
            "velocity": 0.5275590551181102
          },
          {
            "duration": 0.1923074999999983,
            "durationTicks": 40,
            "midi": 57,
            "name": "A3",
            "ticks": 5142,
            "time": 24.721129124999997,
            "velocity": 0.6535433070866141
          },
          {
            "duration": 0.3798073124999988,
            "durationTicks": 79,
            "midi": 57,
            "name": "A3",
            "ticks": 5369,
            "time": 25.812474187499998,
            "velocity": 0.5590551181102362
          },
          {
            "duration": 0.06249993750000371,
            "durationTicks": 13,
            "midi": 56,
            "name": "G#3",
            "ticks": 5449,
            "time": 26.197089187499994,
            "velocity": 0.5826771653543307
          },
          {
            "duration": 0.18269212500000265,
            "durationTicks": 38,
            "midi": 55,
            "name": "G3",
            "ticks": 5463,
            "time": 26.264396812499996,
            "velocity": 0.5669291338582677
          },
          {
            "duration": 0.10096143750000053,
            "durationTicks": 21,
            "midi": 59,
            "name": "B3",
            "ticks": 5502,
            "time": 26.451896624999996,
            "velocity": 0.5196850393700787
          },
          {
            "duration": 0.1730767499999999,
            "durationTicks": 36,
            "midi": 59,
            "name": "B3",
            "ticks": 5523,
            "time": 26.552858062499997,
            "velocity": 0.5196850393700787
          },
          {
            "duration": 0.5288456250000024,
            "durationTicks": 110,
            "midi": 34,
            "name": "A#1",
            "ticks": 5560,
            "time": 26.730742499999995,
            "velocity": 0.5354330708661418
          },
          {
            "duration": 0.20673056250000243,
            "durationTicks": 43,
            "midi": 58,
            "name": "A#3",
            "ticks": 5671,
            "time": 27.264395812499995,
            "velocity": 0.5748031496062992
          },
          {
            "duration": 0.07211531249999936,
            "durationTicks": 15,
            "midi": 60,
            "name": "C4",
            "ticks": 5715,
            "time": 27.4759340625,
            "velocity": 0.5275590551181102
          },
          {
            "duration": 0.14903831250000366,
            "durationTicks": 31,
            "midi": 57,
            "name": "A3",
            "ticks": 5731,
            "time": 27.552857062499996,
            "velocity": 0.5984251968503937
          },
          {
            "duration": 0.4663456874999987,
            "durationTicks": 97,
            "midi": 56,
            "name": "G#3",
            "ticks": 5763,
            "time": 27.706703062499997,
            "velocity": 0.5905511811023622
          },
          {
            "duration": 0.38942268750000153,
            "durationTicks": 81,
            "midi": 59,
            "name": "B3",
            "ticks": 5861,
            "time": 28.177856437499997,
            "velocity": 0.5984251968503937
          },
          {
            "duration": 0.11057681249999973,
            "durationTicks": 23,
            "midi": 59,
            "name": "B3",
            "ticks": 5943,
            "time": 28.572086812499997,
            "velocity": 0.5826771653543307
          },
          {
            "duration": 0.08653837499999995,
            "durationTicks": 18,
            "midi": 59,
            "name": "B3",
            "ticks": 5967,
            "time": 28.687471312499998,
            "velocity": 0.5590551181102362
          },
          {
            "duration": 0.24999975000000063,
            "durationTicks": 52,
            "midi": 61,
            "name": "C#4",
            "ticks": 5986,
            "time": 28.778817374999996,
            "velocity": 0.5905511811023622
          },
          {
            "duration": 0.10096143750000053,
            "durationTicks": 21,
            "midi": 33,
            "name": "A1",
            "ticks": 6038,
            "time": 29.028817124999996,
            "velocity": 0.5118110236220472
          },
          {
            "duration": 0.2019228749999975,
            "durationTicks": 42,
            "midi": 58,
            "name": "A#3",
            "ticks": 6060,
            "time": 29.134586249999998,
            "velocity": 0.6141732283464567
          },
          {
            "duration": 0.11538449999999756,
            "durationTicks": 24,
            "midi": 59,
            "name": "B3",
            "ticks": 6103,
            "time": 29.341316812499997,
            "velocity": 0.5433070866141733
          },
          {
            "duration": 0.27884587499999824,
            "durationTicks": 58,
            "midi": 60,
            "name": "C4",
            "ticks": 6128,
            "time": 29.461509,
            "velocity": 0.5669291338582677
          },
          {
            "duration": 0.05769224999999878,
            "durationTicks": 12,
            "midi": 59,
            "name": "B3",
            "ticks": 6187,
            "time": 29.7451625625,
            "velocity": 0.5826771653543307
          },
          {
            "duration": 0.11057681250000329,
            "durationTicks": 23,
            "midi": 59,
            "name": "B3",
            "ticks": 6200,
            "time": 29.807662499999996,
            "velocity": 0.5669291338582677
          },
          {
            "duration": 0.06730762500000509,
            "durationTicks": 14,
            "midi": 59,
            "name": "B3",
            "ticks": 6224,
            "time": 29.923046999999993,
            "velocity": 0.5748031496062992
          },
          {
            "duration": 0.2019228749999975,
            "durationTicks": 42,
            "midi": 59,
            "name": "B3",
            "ticks": 6239,
            "time": 29.995162312499996,
            "velocity": 0.5511811023622047
          },
          {
            "duration": 0.10576912500000546,
            "durationTicks": 22,
            "midi": 61,
            "name": "C#4",
            "ticks": 6282,
            "time": 30.201892874999995,
            "velocity": 0.6220472440944882
          },
          {
            "duration": 1.254806437500001,
            "durationTicks": 261,
            "midi": 57,
            "name": "A3",
            "ticks": 6305,
            "time": 30.312469687499995,
            "velocity": 0.5354330708661418
          },
          {
            "duration": 0.05769224999999878,
            "durationTicks": 12,
            "midi": 59,
            "name": "B3",
            "ticks": 6567,
            "time": 31.572083812499997,
            "velocity": 0.5826771653543307
          },
          {
            "duration": 0.13461524999999597,
            "durationTicks": 28,
            "midi": 63,
            "name": "D#4",
            "ticks": 6580,
            "time": 31.634583749999997,
            "velocity": 0.5905511811023622
          },
          {
            "duration": 0.04807687500000313,
            "durationTicks": 10,
            "midi": 57,
            "name": "A3",
            "ticks": 6609,
            "time": 31.774006687499995,
            "velocity": 0.5275590551181102
          },
          {
            "duration": 0.12499987500000387,
            "durationTicks": 26,
            "midi": 59,
            "name": "B3",
            "ticks": 6620,
            "time": 31.826891249999996,
            "velocity": 0.5511811023622047
          },
          {
            "duration": 0.11538449999999756,
            "durationTicks": 24,
            "midi": 57,
            "name": "A3",
            "ticks": 6647,
            "time": 31.956698812499994,
            "velocity": 0.5590551181102362
          },
          {
            "duration": 0.30288431249999803,
            "durationTicks": 63,
            "midi": 59,
            "name": "B3",
            "ticks": 6672,
            "time": 32.076890999999996,
            "velocity": 0.5590551181102362
          },
          {
            "duration": 0.04807687500000668,
            "durationTicks": 10,
            "midi": 60,
            "name": "C4",
            "ticks": 6735,
            "time": 32.379775312499994,
            "velocity": 0.5984251968503937
          },
          {
            "duration": 0.19711518750001034,
            "durationTicks": 41,
            "midi": 59,
            "name": "B3",
            "ticks": 6746,
            "time": 32.43265987499999,
            "velocity": 0.5433070866141733
          },
          {
            "duration": 0.2932689374999953,
            "durationTicks": 61,
            "midi": 60,
            "name": "C4",
            "ticks": 6787,
            "time": 32.6297750625,
            "velocity": 0.6141732283464567
          },
          {
            "duration": 0.14423062499999872,
            "durationTicks": 30,
            "midi": 60,
            "name": "C4",
            "ticks": 6849,
            "time": 32.927851687499995,
            "velocity": 0.5984251968503937
          },
          {
            "duration": 0.06730762499999798,
            "durationTicks": 14,
            "midi": 60,
            "name": "C4",
            "ticks": 6880,
            "time": 33.07689,
            "velocity": 0.5984251968503937
          },
          {
            "duration": 0.1394229374999938,
            "durationTicks": 29,
            "midi": 60,
            "name": "C4",
            "ticks": 6895,
            "time": 33.1490053125,
            "velocity": 0.5669291338582677
          },
          {
            "duration": 0.18269212499999554,
            "durationTicks": 38,
            "midi": 60,
            "name": "C4",
            "ticks": 6924,
            "time": 33.288428249999996,
            "velocity": 0.5590551181102362
          },
          {
            "duration": 0.07692300000000074,
            "durationTicks": 16,
            "midi": 64,
            "name": "E4",
            "ticks": 6963,
            "time": 33.475928062499996,
            "velocity": 0.5984251968503937
          },
          {
            "duration": 0.36057656250000036,
            "durationTicks": 75,
            "midi": 60,
            "name": "C4",
            "ticks": 6980,
            "time": 33.557658749999995,
            "velocity": 0.5275590551181102
          },
          {
            "duration": 0.3317304375000063,
            "durationTicks": 69,
            "midi": 64,
            "name": "E4",
            "ticks": 7056,
            "time": 33.92304299999999,
            "velocity": 0.6220472440944882
          },
          {
            "duration": 0.26923049999999904,
            "durationTicks": 56,
            "midi": 60,
            "name": "C4",
            "ticks": 7126,
            "time": 34.259581125,
            "velocity": 0.6456692913385826
          },
          {
            "duration": 0.12499987499999321,
            "durationTicks": 26,
            "midi": 71,
            "name": "B4",
            "ticks": 7183,
            "time": 34.5336193125,
            "velocity": 0.6062992125984252
          },
          {
            "duration": 0.2115382499999967,
            "durationTicks": 44,
            "midi": 60,
            "name": "C4",
            "ticks": 7209,
            "time": 34.658619187499994,
            "velocity": 0.5511811023622047
          },
          {
            "duration": 0.6394224375000022,
            "durationTicks": 133,
            "midi": 59,
            "name": "B3",
            "ticks": 7257,
            "time": 34.889388187499996,
            "velocity": 0.5511811023622047
          },
          {
            "duration": 0.11057681249999973,
            "durationTicks": 23,
            "midi": 60,
            "name": "C4",
            "ticks": 7391,
            "time": 35.533618312499996,
            "velocity": 0.5433070866141733
          },
          {
            "duration": 0.15384600000000148,
            "durationTicks": 32,
            "midi": 60,
            "name": "C4",
            "ticks": 7415,
            "time": 35.649002812499994,
            "velocity": 0.5748031496062992
          },
          {
            "duration": 0.11057681250000684,
            "durationTicks": 23,
            "midi": 59,
            "name": "B3",
            "ticks": 7448,
            "time": 35.80765649999999,
            "velocity": 0.5511811023622047
          },
          {
            "duration": 0.052884562500004506,
            "durationTicks": 11,
            "midi": 59,
            "name": "B3",
            "ticks": 7472,
            "time": 35.92304099999999,
            "velocity": 0.5196850393700787
          },
          {
            "duration": 0.08173068750000567,
            "durationTicks": 17,
            "midi": 65,
            "name": "F4",
            "ticks": 7484,
            "time": 35.98073324999999,
            "velocity": 0.5905511811023622
          },
          {
            "duration": 0.3990380625000043,
            "durationTicks": 83,
            "midi": 58,
            "name": "A#3",
            "ticks": 7502,
            "time": 36.067271625,
            "velocity": 0.5354330708661418
          },
          {
            "duration": 0.06730762500000509,
            "durationTicks": 14,
            "midi": 60,
            "name": "C4",
            "ticks": 7586,
            "time": 36.47111737499999,
            "velocity": 0.6377952755905512
          },
          {
            "duration": 0.048076874999999575,
            "durationTicks": 10,
            "midi": 60,
            "name": "C4",
            "ticks": 7601,
            "time": 36.543232687499994,
            "velocity": 0.6141732283464567
          },
          {
            "duration": 0.11538449999999756,
            "durationTicks": 24,
            "midi": 60,
            "name": "C4",
            "ticks": 7612,
            "time": 36.59611725,
            "velocity": 0.5826771653543307
          },
          {
            "duration": 0.3798073125000059,
            "durationTicks": 79,
            "midi": 60,
            "name": "C4",
            "ticks": 7667,
            "time": 36.86054006249999,
            "velocity": 0.5433070866141733
          },
          {
            "duration": 0.1394229375000009,
            "durationTicks": 29,
            "midi": 59,
            "name": "B3",
            "ticks": 7747,
            "time": 37.2451550625,
            "velocity": 0.5748031496062992
          },
          {
            "duration": 0.16826906250000206,
            "durationTicks": 35,
            "midi": 60,
            "name": "C4",
            "ticks": 7777,
            "time": 37.389385687499995,
            "velocity": 0.6062992125984252
          },
          {
            "duration": 0.07211531250000291,
            "durationTicks": 15,
            "midi": 71,
            "name": "B4",
            "ticks": 7813,
            "time": 37.562462437499995,
            "velocity": 0.5511811023622047
          },
          {
            "duration": 0.24038437499999787,
            "durationTicks": 50,
            "midi": 58,
            "name": "A#3",
            "ticks": 7828,
            "time": 37.63457775,
            "velocity": 0.5354330708661418
          },
          {
            "duration": 0.043269187499994644,
            "durationTicks": 9,
            "midi": 59,
            "name": "B3",
            "ticks": 7879,
            "time": 37.8797698125,
            "velocity": 0.5669291338582677
          },
          {
            "duration": 0.14903831250000366,
            "durationTicks": 31,
            "midi": 59,
            "name": "B3",
            "ticks": 7889,
            "time": 37.92784668749999,
            "velocity": 0.5590551181102362
          },
          {
            "duration": 0.07692300000000074,
            "durationTicks": 16,
            "midi": 59,
            "name": "B3",
            "ticks": 7921,
            "time": 38.081692687499995,
            "velocity": 0.5275590551181102
          },
          {
            "duration": 0.2644228125000012,
            "durationTicks": 55,
            "midi": 60,
            "name": "C4",
            "ticks": 7938,
            "time": 38.163423374999994,
            "velocity": 0.5590551181102362
          },
          {
            "duration": 0.3798073125000059,
            "durationTicks": 79,
            "midi": 33,
            "name": "A1",
            "ticks": 7997,
            "time": 38.44707693749999,
            "velocity": 0.5118110236220472
          },
          {
            "duration": 0.04326918750000175,
            "durationTicks": 9,
            "midi": 59,
            "name": "B3",
            "ticks": 8077,
            "time": 38.8316919375,
            "velocity": 0.5196850393700787
          },
          {
            "duration": 0.07211531249999581,
            "durationTicks": 15,
            "midi": 61,
            "name": "C#4",
            "ticks": 8087,
            "time": 38.8797688125,
            "velocity": 0.6062992125984252
          },
          {
            "duration": 0.2980766249999931,
            "durationTicks": 62,
            "midi": 60,
            "name": "C4",
            "ticks": 8103,
            "time": 38.9566918125,
            "velocity": 0.5354330708661418
          },
          {
            "duration": 0.12499987500000032,
            "durationTicks": 26,
            "midi": 61,
            "name": "C#4",
            "ticks": 8166,
            "time": 39.259576124999995,
            "velocity": 0.5669291338582677
          },
          {
            "duration": 0.14903831249999655,
            "durationTicks": 31,
            "midi": 60,
            "name": "C4",
            "ticks": 8192,
            "time": 39.384575999999996,
            "velocity": 0.5669291338582677
          },
          {
            "duration": 0.3317304374999992,
            "durationTicks": 69,
            "midi": 60,
            "name": "C4",
            "ticks": 8267,
            "time": 39.745152562499996,
            "velocity": 0.5984251968503937
          },
          {
            "duration": 0.27403818750000397,
            "durationTicks": 57,
            "midi": 62,
            "name": "D4",
            "ticks": 8337,
            "time": 40.08169068749999,
            "velocity": 0.5433070866141733
          },
          {
            "duration": 0.11057681249999973,
            "durationTicks": 23,
            "midi": 61,
            "name": "C#4",
            "ticks": 8395,
            "time": 40.360536562499995,
            "velocity": 0.5590551181102362
          },
          {
            "duration": 0.3990380624999972,
            "durationTicks": 83,
            "midi": 61,
            "name": "C#4",
            "ticks": 8419,
            "time": 40.4759210625,
            "velocity": 0.5590551181102362
          },
          {
            "duration": 0.09615374999999915,
            "durationTicks": 20,
            "midi": 61,
            "name": "C#4",
            "ticks": 8503,
            "time": 40.879766812499994,
            "velocity": 0.6062992125984252
          },
          {
            "duration": 0.42788418749999835,
            "durationTicks": 89,
            "midi": 60,
            "name": "C4",
            "ticks": 8524,
            "time": 40.98072825,
            "velocity": 0.5511811023622047
          },
          {
            "duration": 0.07211531250000291,
            "durationTicks": 15,
            "midi": 64,
            "name": "E4",
            "ticks": 8614,
            "time": 41.413420124999995,
            "velocity": 0.5984251968503937
          },
          {
            "duration": 0.08173068749999857,
            "durationTicks": 17,
            "midi": 59,
            "name": "B3",
            "ticks": 8630,
            "time": 41.490343124999995,
            "velocity": 0.5275590551181102
          },
          {
            "duration": 0.2115382500000038,
            "durationTicks": 44,
            "midi": 59,
            "name": "B3",
            "ticks": 8648,
            "time": 41.57688149999999,
            "velocity": 0.5433070866141733
          },
          {
            "duration": 0.08653837499999639,
            "durationTicks": 18,
            "midi": 61,
            "name": "C#4",
            "ticks": 8693,
            "time": 41.79322743749999,
            "velocity": 0.6141732283464567
          },
          {
            "duration": 0.11057681249999973,
            "durationTicks": 23,
            "midi": 58,
            "name": "A#3",
            "ticks": 8712,
            "time": 41.884573499999995,
            "velocity": 0.5433070866141733
          },
          {
            "duration": 0.2788458750000018,
            "durationTicks": 58,
            "midi": 61,
            "name": "C#4",
            "ticks": 8736,
            "time": 41.99995799999999,
            "velocity": 0.6220472440944882
          },
          {
            "duration": 0.677883937499999,
            "durationTicks": 141,
            "midi": 32,
            "name": "G#1",
            "ticks": 8795,
            "time": 42.28361156249999,
            "velocity": 0.5905511811023622
          },
          {
            "duration": 0.12980756249999814,
            "durationTicks": 27,
            "midi": 61,
            "name": "C#4",
            "ticks": 8943,
            "time": 42.9951493125,
            "velocity": 0.6062992125984252
          },
          {
            "duration": 0.057692249999995227,
            "durationTicks": 12,
            "midi": 61,
            "name": "C#4",
            "ticks": 8971,
            "time": 43.1297645625,
            "velocity": 0.6141732283464567
          },
          {
            "duration": 0.2788458750000018,
            "durationTicks": 58,
            "midi": 57,
            "name": "A3",
            "ticks": 8984,
            "time": 43.19226449999999,
            "velocity": 0.5275590551181102
          },
          {
            "duration": 0.11057681249999263,
            "durationTicks": 23,
            "midi": 61,
            "name": "C#4",
            "ticks": 9043,
            "time": 43.4759180625,
            "velocity": 0.5433070866141733
          },
          {
            "duration": 0.3461534999999998,
            "durationTicks": 72,
            "midi": 59,
            "name": "B3",
            "ticks": 9066,
            "time": 43.58649487499999,
            "velocity": 0.5590551181102362
          },
          {
            "duration": 0.18269212499999554,
            "durationTicks": 38,
            "midi": 58,
            "name": "A#3",
            "ticks": 9139,
            "time": 43.9374560625,
            "velocity": 0.5511811023622047
          },
          {
            "duration": 0.0528845624999974,
            "durationTicks": 11,
            "midi": 61,
            "name": "C#4",
            "ticks": 9178,
            "time": 44.124955875,
            "velocity": 0.5826771653543307
          },
          {
            "duration": 0.28846124999999745,
            "durationTicks": 60,
            "midi": 61,
            "name": "C#4",
            "ticks": 9190,
            "time": 44.182648125,
            "velocity": 0.5511811023622047
          },
          {
            "duration": 0.27403818749999687,
            "durationTicks": 57,
            "midi": 58,
            "name": "A#3",
            "ticks": 9250,
            "time": 44.471109375,
            "velocity": 0.5826771653543307
          },
          {
            "duration": 0.04326918750000175,
            "durationTicks": 9,
            "midi": 60,
            "name": "C4",
            "ticks": 9308,
            "time": 44.74995524999999,
            "velocity": 0.5275590551181102
          },
          {
            "duration": 1.3749986250000035,
            "durationTicks": 286,
            "midi": 60,
            "name": "C4",
            "ticks": 9318,
            "time": 44.79803212499999,
            "velocity": 0.5984251968503937
          },
          {
            "duration": 0.07211531250000291,
            "durationTicks": 15,
            "midi": 59,
            "name": "B3",
            "ticks": 9605,
            "time": 46.17783843749999,
            "velocity": 0.5669291338582677
          },
          {
            "duration": 0.05769225000000233,
            "durationTicks": 12,
            "midi": 60,
            "name": "C4",
            "ticks": 9621,
            "time": 46.254761437499994,
            "velocity": 0.5905511811023622
          },
          {
            "duration": 0.2259613124999973,
            "durationTicks": 47,
            "midi": 61,
            "name": "C#4",
            "ticks": 9634,
            "time": 46.317261374999994,
            "velocity": 0.5590551181102362
          },
          {
            "duration": 0.25480743749999846,
            "durationTicks": 53,
            "midi": 61,
            "name": "C#4",
            "ticks": 9682,
            "time": 46.548030374999996,
            "velocity": 0.5748031496062992
          },
          {
            "duration": 0.18749981250000047,
            "durationTicks": 39,
            "midi": 60,
            "name": "C4",
            "ticks": 9736,
            "time": 46.8076455,
            "velocity": 0.5511811023622047
          },
          {
            "duration": 0.18269212499999554,
            "durationTicks": 38,
            "midi": 60,
            "name": "C4",
            "ticks": 9775,
            "time": 46.9951453125,
            "velocity": 0.5118110236220472
          },
          {
            "duration": 0.048076874999999575,
            "durationTicks": 10,
            "midi": 61,
            "name": "C#4",
            "ticks": 9814,
            "time": 47.18264512499999,
            "velocity": 0.5590551181102362
          },
          {
            "duration": 0.043269187499994644,
            "durationTicks": 9,
            "midi": 60,
            "name": "C4",
            "ticks": 9825,
            "time": 47.2355296875,
            "velocity": 0.5354330708661418
          },
          {
            "duration": 0.12019218749999538,
            "durationTicks": 25,
            "midi": 59,
            "name": "B3",
            "ticks": 9835,
            "time": 47.2836065625,
            "velocity": 0.5433070866141733
          },
          {
            "duration": 0.24038437499999787,
            "durationTicks": 50,
            "midi": 61,
            "name": "C#4",
            "ticks": 9861,
            "time": 47.4086064375,
            "velocity": 0.5669291338582677
          },
          {
            "duration": 0.9134606250000061,
            "durationTicks": 190,
            "midi": 58,
            "name": "A#3",
            "ticks": 9912,
            "time": 47.65379849999999,
            "velocity": 0.5433070866141733
          },
          {
            "duration": 0.2115382499999967,
            "durationTicks": 44,
            "midi": 61,
            "name": "C#4",
            "ticks": 10102,
            "time": 48.567259125,
            "velocity": 0.6141732283464567
          },
          {
            "duration": 0.11538449999999756,
            "durationTicks": 24,
            "midi": 62,
            "name": "D4",
            "ticks": 10152,
            "time": 48.8076435,
            "velocity": 0.6299212598425197
          },
          {
            "duration": 0.46153799999999734,
            "durationTicks": 96,
            "midi": 61,
            "name": "C#4",
            "ticks": 10177,
            "time": 48.9278356875,
            "velocity": 0.5590551181102362
          },
          {
            "duration": 0.21634593749999453,
            "durationTicks": 45,
            "midi": 59,
            "name": "B3",
            "ticks": 10274,
            "time": 49.394181374999995,
            "velocity": 0.5590551181102362
          },
          {
            "duration": 0.44230724999999893,
            "durationTicks": 92,
            "midi": 61,
            "name": "C#4",
            "ticks": 10320,
            "time": 49.615334999999995,
            "velocity": 0.5748031496062992
          },
          {
            "duration": 0.22115362500000657,
            "durationTicks": 46,
            "midi": 61,
            "name": "C#4",
            "ticks": 10413,
            "time": 50.06244993749999,
            "velocity": 0.5984251968503937
          },
          {
            "duration": 0.24038437500000498,
            "durationTicks": 50,
            "midi": 63,
            "name": "D#4",
            "ticks": 10460,
            "time": 50.28841124999999,
            "velocity": 0.5905511811023622
          },
          {
            "duration": 0.13461525000000307,
            "durationTicks": 28,
            "midi": 60,
            "name": "C4",
            "ticks": 10511,
            "time": 50.53360331249999,
            "velocity": 0.5433070866141733
          },
          {
            "duration": 0.05769225000000233,
            "durationTicks": 12,
            "midi": 61,
            "name": "C#4",
            "ticks": 10539,
            "time": 50.668218562499995,
            "velocity": 0.5826771653543307
          },
          {
            "duration": 0.07211531250000291,
            "durationTicks": 15,
            "midi": 60,
            "name": "C4",
            "ticks": 10552,
            "time": 50.730718499999995,
            "velocity": 0.5196850393700787
          },
          {
            "duration": 0.2836535624999996,
            "durationTicks": 59,
            "midi": 62,
            "name": "D4",
            "ticks": 10567,
            "time": 50.8028338125,
            "velocity": 0.5826771653543307
          },
          {
            "duration": 0.471153374999993,
            "durationTicks": 98,
            "midi": 60,
            "name": "C4",
            "ticks": 10626,
            "time": 51.086487375,
            "velocity": 0.6141732283464567
          },
          {
            "duration": 0.10096143749999698,
            "durationTicks": 21,
            "midi": 60,
            "name": "C4",
            "ticks": 10725,
            "time": 51.562448437499995,
            "velocity": 0.5826771653543307
          },
          {
            "duration": 0.07692299999999364,
            "durationTicks": 16,
            "midi": 62,
            "name": "D4",
            "ticks": 10747,
            "time": 51.6682175625,
            "velocity": 0.5275590551181102
          },
          {
            "duration": 0.30769200000000296,
            "durationTicks": 64,
            "midi": 62,
            "name": "D4",
            "ticks": 10763,
            "time": 51.74514056249999,
            "velocity": 0.5196850393700787
          },
          {
            "duration": 0.2932689375000024,
            "durationTicks": 61,
            "midi": 63,
            "name": "D#4",
            "ticks": 10827,
            "time": 52.052832562499994,
            "velocity": 0.5669291338582677
          },
          {
            "duration": 0.15384600000000148,
            "durationTicks": 32,
            "midi": 62,
            "name": "D4",
            "ticks": 10889,
            "time": 52.350909187499994,
            "velocity": 0.5748031496062992
          },
          {
            "duration": 0.12019218750000249,
            "durationTicks": 25,
            "midi": 62,
            "name": "D4",
            "ticks": 10922,
            "time": 52.50956287499999,
            "velocity": 0.5669291338582677
          },
          {
            "duration": 0.5240379374999975,
            "durationTicks": 109,
            "midi": 60,
            "name": "C4",
            "ticks": 10948,
            "time": 52.63456274999999,
            "velocity": 0.5511811023622047
          },
          {
            "duration": 0.052884562500004506,
            "durationTicks": 11,
            "midi": 63,
            "name": "D#4",
            "ticks": 11057,
            "time": 53.15860068749999,
            "velocity": 0.5826771653543307
          },
          {
            "duration": 0.12980756249999814,
            "durationTicks": 27,
            "midi": 59,
            "name": "B3",
            "ticks": 11068,
            "time": 53.211485249999996,
            "velocity": 0.5354330708661418
          },
          {
            "duration": 0.11057681249999973,
            "durationTicks": 23,
            "midi": 64,
            "name": "E4",
            "ticks": 11095,
            "time": 53.341292812499994,
            "velocity": 0.6220472440944882
          },
          {
            "duration": 0.812499187499995,
            "durationTicks": 169,
            "midi": 58,
            "name": "A#3",
            "ticks": 11119,
            "time": 53.4566773125,
            "velocity": 0.5354330708661418
          },
          {
            "duration": 0.09134606250000843,
            "durationTicks": 19,
            "midi": 62,
            "name": "D4",
            "ticks": 11289,
            "time": 54.27398418749999,
            "velocity": 0.5984251968503937
          },
          {
            "duration": 0.35576887500000254,
            "durationTicks": 74,
            "midi": 62,
            "name": "D4",
            "ticks": 11309,
            "time": 54.37013793749999,
            "velocity": 0.5748031496062992
          },
          {
            "duration": 0.14423062499999872,
            "durationTicks": 30,
            "midi": 62,
            "name": "D4",
            "ticks": 11390,
            "time": 54.75956062499999,
            "velocity": 0.5748031496062992
          },
          {
            "duration": 0.07692300000000074,
            "durationTicks": 16,
            "midi": 62,
            "name": "D4",
            "ticks": 11421,
            "time": 54.908598937499995,
            "velocity": 0.5590551181102362
          },
          {
            "duration": 0.057692249999995227,
            "durationTicks": 12,
            "midi": 62,
            "name": "D4",
            "ticks": 11438,
            "time": 54.990329624999994,
            "velocity": 0.5433070866141733
          },
          {
            "duration": 0.06730762499999798,
            "durationTicks": 14,
            "midi": 57,
            "name": "A3",
            "ticks": 11451,
            "time": 55.052829562499994,
            "velocity": 0.5275590551181102
          },
          {
            "duration": 0.27403818749999687,
            "durationTicks": 57,
            "midi": 62,
            "name": "D4",
            "ticks": 11466,
            "time": 55.124944875,
            "velocity": 0.5669291338582677
          },
          {
            "duration": 0.14903831249998944,
            "durationTicks": 31,
            "midi": 59,
            "name": "B3",
            "ticks": 11524,
            "time": 55.40379075,
            "velocity": 0.5511811023622047
          },
          {
            "duration": 0.09615374999999915,
            "durationTicks": 20,
            "midi": 62,
            "name": "D4",
            "ticks": 11556,
            "time": 55.55763674999999,
            "velocity": 0.5669291338582677
          },
          {
            "duration": 0.3798073125000059,
            "durationTicks": 79,
            "midi": 62,
            "name": "D4",
            "ticks": 11577,
            "time": 55.65859818749999,
            "velocity": 0.6062992125984252
          },
          {
            "duration": 0.08653837499999639,
            "durationTicks": 18,
            "midi": 64,
            "name": "E4",
            "ticks": 11659,
            "time": 56.0528285625,
            "velocity": 0.7007874015748031
          },
          {
            "duration": 0.06730762499999798,
            "durationTicks": 14,
            "midi": 64,
            "name": "E4",
            "ticks": 11677,
            "time": 56.13936693749999,
            "velocity": 0.6220472440944882
          },
          {
            "duration": 0.07692299999999364,
            "durationTicks": 16,
            "midi": 62,
            "name": "D4",
            "ticks": 11692,
            "time": 56.211482249999996,
            "velocity": 0.5669291338582677
          },
          {
            "duration": 0.8076915000000042,
            "durationTicks": 168,
            "midi": 60,
            "name": "C4",
            "ticks": 11736,
            "time": 56.42302049999999,
            "velocity": 0.5511811023622047
          },
          {
            "duration": 0.36057656250000036,
            "durationTicks": 75,
            "midi": 61,
            "name": "C#4",
            "ticks": 11905,
            "time": 57.235519687499995,
            "velocity": 0.6220472440944882
          },
          {
            "duration": 0.12980756249999814,
            "durationTicks": 27,
            "midi": 63,
            "name": "D#4",
            "ticks": 11981,
            "time": 57.60090393749999,
            "velocity": 0.6377952755905512
          },
          {
            "duration": 0.15384599999999438,
            "durationTicks": 32,
            "midi": 63,
            "name": "D#4",
            "ticks": 12009,
            "time": 57.735519187499996,
            "velocity": 0.5669291338582677
          },
          {
            "duration": 0.1057691250000019,
            "durationTicks": 22,
            "midi": 63,
            "name": "D#4",
            "ticks": 12042,
            "time": 57.894172874999995,
            "velocity": 0.5669291338582677
          },
          {
            "duration": 0.139422937500008,
            "durationTicks": 29,
            "midi": 62,
            "name": "D4",
            "ticks": 12065,
            "time": 58.00474968749999,
            "velocity": 0.5511811023622047
          },
          {
            "duration": 0.14903831249999655,
            "durationTicks": 31,
            "midi": 60,
            "name": "C4",
            "ticks": 12095,
            "time": 58.148980312499994,
            "velocity": 0.5354330708661418
          },
          {
            "duration": 0.1586536874999993,
            "durationTicks": 33,
            "midi": 59,
            "name": "B3",
            "ticks": 12127,
            "time": 58.302826312499995,
            "velocity": 0.5275590551181102
          },
          {
            "duration": 0.44230724999999893,
            "durationTicks": 92,
            "midi": 60,
            "name": "C4",
            "ticks": 12160,
            "time": 58.461479999999995,
            "velocity": 0.5748031496062992
          },
          {
            "duration": 0.11057681249999973,
            "durationTicks": 23,
            "midi": 60,
            "name": "C4",
            "ticks": 12252,
            "time": 58.90378724999999,
            "velocity": 0.5511811023622047
          },
          {
            "duration": 0.05769225000000233,
            "durationTicks": 12,
            "midi": 59,
            "name": "B3",
            "ticks": 12276,
            "time": 59.01917174999999,
            "velocity": 0.5275590551181102
          },
          {
            "duration": 0.16826906250000206,
            "durationTicks": 35,
            "midi": 63,
            "name": "D#4",
            "ticks": 12289,
            "time": 59.08167168749999,
            "velocity": 0.5748031496062992
          },
          {
            "duration": 1.254806437500001,
            "durationTicks": 261,
            "midi": 63,
            "name": "D#4",
            "ticks": 12325,
            "time": 59.25474843749999,
            "velocity": 0.5905511811023622
          },
          {
            "duration": 0.21634593750000164,
            "durationTicks": 45,
            "midi": 63,
            "name": "D#4",
            "ticks": 12589,
            "time": 60.523977937499986,
            "velocity": 0.5826771653543307
          },
          {
            "duration": 0.09134606249999422,
            "durationTicks": 19,
            "midi": 60,
            "name": "C4",
            "ticks": 12635,
            "time": 60.7451315625,
            "velocity": 0.5433070866141733
          },
          {
            "duration": 0.07692300000000785,
            "durationTicks": 16,
            "midi": 62,
            "name": "D4",
            "ticks": 12655,
            "time": 60.84128531249999,
            "velocity": 0.5511811023622047
          },
          {
            "duration": 0.052884562500004506,
            "durationTicks": 11,
            "midi": 57,
            "name": "A3",
            "ticks": 12672,
            "time": 60.92301599999999,
            "velocity": 0.5275590551181102
          },
          {
            "duration": 0.1730767499999999,
            "durationTicks": 36,
            "midi": 63,
            "name": "D#4",
            "ticks": 12683,
            "time": 60.975900562499994,
            "velocity": 0.6062992125984252
          },
          {
            "duration": 0.8221145625000048,
            "durationTicks": 171,
            "midi": 59,
            "name": "B3",
            "ticks": 12719,
            "time": 61.148977312499994,
            "velocity": 0.5748031496062992
          },
          {
            "duration": 0.1057691250000019,
            "durationTicks": 22,
            "midi": 63,
            "name": "D#4",
            "ticks": 12891,
            "time": 61.97589956249999,
            "velocity": 0.5826771653543307
          },
          {
            "duration": 0.13461524999999597,
            "durationTicks": 28,
            "midi": 60,
            "name": "C4",
            "ticks": 12914,
            "time": 62.086476375,
            "velocity": 0.5511811023622047
          },
          {
            "duration": 0.07692300000000785,
            "durationTicks": 16,
            "midi": 60,
            "name": "C4",
            "ticks": 12943,
            "time": 62.22589931249999,
            "velocity": 0.5354330708661418
          },
          {
            "duration": 0.11538449999999756,
            "durationTicks": 24,
            "midi": 61,
            "name": "C#4",
            "ticks": 12960,
            "time": 62.307629999999996,
            "velocity": 0.5669291338582677
          },
          {
            "duration": 0.057692249999995227,
            "durationTicks": 12,
            "midi": 60,
            "name": "C4",
            "ticks": 12985,
            "time": 62.42782218749999,
            "velocity": 0.5669291338582677
          },
          {
            "duration": 0.3509611875000118,
            "durationTicks": 73,
            "midi": 61,
            "name": "C#4",
            "ticks": 12997,
            "time": 62.48551443749999,
            "velocity": 0.6141732283464567
          },
          {
            "duration": 0.28846124999999745,
            "durationTicks": 60,
            "midi": 60,
            "name": "C4",
            "ticks": 13070,
            "time": 62.836475625,
            "velocity": 0.6141732283464567
          },
          {
            "duration": 0.09134606249999422,
            "durationTicks": 19,
            "midi": 60,
            "name": "C4",
            "ticks": 13131,
            "time": 63.129744562499994,
            "velocity": 0.6456692913385826
          },
          {
            "duration": 0.04807687500000668,
            "durationTicks": 10,
            "midi": 62,
            "name": "D4",
            "ticks": 13150,
            "time": 63.22109062499999,
            "velocity": 0.5275590551181102
          },
          {
            "duration": 0.14903831249999655,
            "durationTicks": 31,
            "midi": 62,
            "name": "D4",
            "ticks": 13161,
            "time": 63.27397518749999,
            "velocity": 0.5433070866141733
          },
          {
            "duration": 0.30288431250000514,
            "durationTicks": 63,
            "midi": 63,
            "name": "D#4",
            "ticks": 13193,
            "time": 63.427821187499994,
            "velocity": 0.5984251968503937
          },
          {
            "duration": 0.12019218749999538,
            "durationTicks": 25,
            "midi": 61,
            "name": "C#4",
            "ticks": 13257,
            "time": 63.73551318749999,
            "velocity": 0.5669291338582677
          },
          {
            "duration": 0.04807687499999247,
            "durationTicks": 10,
            "midi": 61,
            "name": "C#4",
            "ticks": 13283,
            "time": 63.8605130625,
            "velocity": 0.6299212598425197
          },
          {
            "duration": 0.10576912500000901,
            "durationTicks": 22,
            "midi": 59,
            "name": "B3",
            "ticks": 13294,
            "time": 63.91339762499999,
            "velocity": 0.5511811023622047
          },
          {
            "duration": 0.0673076250000122,
            "durationTicks": 14,
            "midi": 64,
            "name": "E4",
            "ticks": 13317,
            "time": 64.02397443749999,
            "velocity": 0.5905511811023622
          },
          {
            "duration": 0.09615375000001336,
            "durationTicks": 20,
            "midi": 59,
            "name": "B3",
            "ticks": 13332,
            "time": 64.09608974999999,
            "velocity": 0.5196850393700787
          },
          {
            "duration": 0.20673056249999888,
            "durationTicks": 43,
            "midi": 60,
            "name": "C4",
            "ticks": 13353,
            "time": 64.1970511875,
            "velocity": 0.5669291338582677
          },
          {
            "duration": 0.06730762499999798,
            "durationTicks": 14,
            "midi": 64,
            "name": "E4",
            "ticks": 13396,
            "time": 64.40378175,
            "velocity": 0.6299212598425197
          },
          {
            "duration": 0.16826906250001628,
            "durationTicks": 35,
            "midi": 60,
            "name": "C4",
            "ticks": 13411,
            "time": 64.47589706249998,
            "velocity": 0.5433070866141733
          },
          {
            "duration": 0.04326918750000175,
            "durationTicks": 9,
            "midi": 59,
            "name": "B3",
            "ticks": 13447,
            "time": 64.64897381249999,
            "velocity": 0.5590551181102362
          },
          {
            "duration": 0.11057681249999973,
            "durationTicks": 23,
            "midi": 63,
            "name": "D#4",
            "ticks": 13457,
            "time": 64.6970506875,
            "velocity": 0.5669291338582677
          },
          {
            "duration": 0.04807687499999247,
            "durationTicks": 10,
            "midi": 59,
            "name": "B3",
            "ticks": 13481,
            "time": 64.8124351875,
            "velocity": 0.5354330708661418
          },
          {
            "duration": 0.0865383750000035,
            "durationTicks": 18,
            "midi": 64,
            "name": "E4",
            "ticks": 13491,
            "time": 64.86051206249999,
            "velocity": 0.5984251968503937
          },
          {
            "duration": 0.46153800000000444,
            "durationTicks": 96,
            "midi": 63,
            "name": "D#4",
            "ticks": 13510,
            "time": 64.95185812499999,
            "velocity": 0.5984251968503937
          },
          {
            "duration": 0.20673056249999888,
            "durationTicks": 43,
            "midi": 64,
            "name": "E4",
            "ticks": 13607,
            "time": 65.4182038125,
            "velocity": 0.6456692913385826
          },
          {
            "duration": 0.08653837499998929,
            "durationTicks": 18,
            "midi": 64,
            "name": "E4",
            "ticks": 13684,
            "time": 65.78839574999999,
            "velocity": 0.5433070866141733
          },
          {
            "duration": 0.09615374999998494,
            "durationTicks": 20,
            "midi": 61,
            "name": "C#4",
            "ticks": 13703,
            "time": 65.8797418125,
            "velocity": 0.5354330708661418
          },
          {
            "duration": 0.12980756250000525,
            "durationTicks": 27,
            "midi": 62,
            "name": "D4",
            "ticks": 13724,
            "time": 65.98070324999999,
            "velocity": 0.5354330708661418
          },
          {
            "duration": 0.18269212500001686,
            "durationTicks": 38,
            "midi": 63,
            "name": "D#4",
            "ticks": 13752,
            "time": 66.11531849999999,
            "velocity": 0.5433070866141733
          },
          {
            "duration": 0.09615374999998494,
            "durationTicks": 20,
            "midi": 33,
            "name": "A1",
            "ticks": 13793,
            "time": 66.3124336875,
            "velocity": 0.5275590551181102
          },
          {
            "duration": 0.12499987500000032,
            "durationTicks": 26,
            "midi": 58,
            "name": "A#3",
            "ticks": 13814,
            "time": 66.413395125,
            "velocity": 0.5354330708661418
          },
          {
            "duration": 0.13461524999999597,
            "durationTicks": 28,
            "midi": 63,
            "name": "D#4",
            "ticks": 13841,
            "time": 66.5432026875,
            "velocity": 0.5511811023622047
          },
          {
            "duration": 0.10096143750000408,
            "durationTicks": 21,
            "midi": 57,
            "name": "A3",
            "ticks": 13870,
            "time": 66.68262562499999,
            "velocity": 0.5354330708661418
          },
          {
            "duration": 0.12019218749999538,
            "durationTicks": 25,
            "midi": 59,
            "name": "B3",
            "ticks": 13892,
            "time": 66.78839475,
            "velocity": 0.5669291338582677
          },
          {
            "duration": 0.05769224999998812,
            "durationTicks": 12,
            "midi": 63,
            "name": "D#4",
            "ticks": 13918,
            "time": 66.913394625,
            "velocity": 0.5669291338582677
          },
          {
            "duration": 0.0865383750000035,
            "durationTicks": 18,
            "midi": 59,
            "name": "B3",
            "ticks": 13930,
            "time": 66.97108687499998,
            "velocity": 0.5118110236220472
          },
          {
            "duration": 0.11538450000000466,
            "durationTicks": 24,
            "midi": 58,
            "name": "A#3",
            "ticks": 13949,
            "time": 67.06243293749999,
            "velocity": 0.5669291338582677
          },
          {
            "duration": 0.1923074999999983,
            "durationTicks": 40,
            "midi": 63,
            "name": "D#4",
            "ticks": 13975,
            "time": 67.18743281249999,
            "velocity": 0.5590551181102362
          },
          {
            "duration": 0.06249993749999305,
            "durationTicks": 13,
            "midi": 33,
            "name": "A1",
            "ticks": 14016,
            "time": 67.384548,
            "velocity": 0.5118110236220472
          },
          {
            "duration": 0.1394229375000009,
            "durationTicks": 29,
            "midi": 62,
            "name": "D4",
            "ticks": 14029,
            "time": 67.44704793749999,
            "velocity": 0.5433070866141733
          },
          {
            "duration": 0.1394229375000009,
            "durationTicks": 29,
            "midi": 64,
            "name": "E4",
            "ticks": 14062,
            "time": 67.605701625,
            "velocity": 0.5826771653543307
          },
          {
            "duration": 0.05288456250001161,
            "durationTicks": 11,
            "midi": 59,
            "name": "B3",
            "ticks": 14092,
            "time": 67.74993224999999,
            "velocity": 0.5354330708661418
          },
          {
            "duration": 0.1586536875000064,
            "durationTicks": 33,
            "midi": 63,
            "name": "D#4",
            "ticks": 14104,
            "time": 67.80762449999999,
            "velocity": 0.5826771653543307
          },
          {
            "duration": 0.2836535624999925,
            "durationTicks": 59,
            "midi": 60,
            "name": "C4",
            "ticks": 14138,
            "time": 67.971085875,
            "velocity": 0.5433070866141733
          },
          {
            "duration": 0.13461525000001018,
            "durationTicks": 28,
            "midi": 60,
            "name": "C4",
            "ticks": 14197,
            "time": 68.25473943749999,
            "velocity": 0.5590551181102362
          },
          {
            "duration": 0.1394229374999867,
            "durationTicks": 29,
            "midi": 40,
            "name": "E2",
            "ticks": 14225,
            "time": 68.3893546875,
            "velocity": 0.5118110236220472
          },
          {
            "duration": 0.2596151249999963,
            "durationTicks": 54,
            "midi": 60,
            "name": "C4",
            "ticks": 14254,
            "time": 68.52877762499999,
            "velocity": 0.5196850393700787
          },
          {
            "duration": 0.03846149999999682,
            "durationTicks": 8,
            "midi": 60,
            "name": "C4",
            "ticks": 14309,
            "time": 68.79320043749999,
            "velocity": 0.5196850393700787
          },
          {
            "duration": 0.0865383750000035,
            "durationTicks": 18,
            "midi": 60,
            "name": "C4",
            "ticks": 14318,
            "time": 68.83646962499999,
            "velocity": 0.5196850393700787
          },
          {
            "duration": 0.5144225624999876,
            "durationTicks": 107,
            "midi": 62,
            "name": "D4",
            "ticks": 14336,
            "time": 68.923008,
            "velocity": 0.5275590551181102
          },
          {
            "duration": 0.32692274999998006,
            "durationTicks": 68,
            "midi": 33,
            "name": "A1",
            "ticks": 14444,
            "time": 69.44223825,
            "velocity": 0.5118110236220472
          },
          {
            "duration": 0.10096143750000408,
            "durationTicks": 21,
            "midi": 59,
            "name": "B3",
            "ticks": 14512,
            "time": 69.76916099999998,
            "velocity": 0.5196850393700787
          },
          {
            "duration": 0.2115382499999896,
            "durationTicks": 44,
            "midi": 59,
            "name": "B3",
            "ticks": 14534,
            "time": 69.87493012499999,
            "velocity": 0.5196850393700787
          },
          {
            "duration": 0.05769225000000233,
            "durationTicks": 12,
            "midi": 60,
            "name": "C4",
            "ticks": 14579,
            "time": 70.0912760625,
            "velocity": 0.5118110236220472
          },
          {
            "duration": 0.11538450000000466,
            "durationTicks": 24,
            "midi": 60,
            "name": "C4",
            "ticks": 14622,
            "time": 70.29800662499999,
            "velocity": 0.5196850393700787
          },
          {
            "duration": 0.09615374999999915,
            "durationTicks": 20,
            "midi": 59,
            "name": "B3",
            "ticks": 14647,
            "time": 70.4181988125,
            "velocity": 0.5275590551181102
          },
          {
            "duration": 0.06249993749999305,
            "durationTicks": 13,
            "midi": 47,
            "name": "B2",
            "ticks": 14682,
            "time": 70.586467875,
            "velocity": 0.5118110236220472
          },
          {
            "duration": 0.04807687499999247,
            "durationTicks": 10,
            "midi": 58,
            "name": "A#3",
            "ticks": 14696,
            "time": 70.6537755,
            "velocity": 0.5039370078740157
          },
          {
            "duration": 1.014422062500003,
            "durationTicks": 211,
            "midi": 52,
            "name": "E3",
            "ticks": 14707,
            "time": 70.70666006249999,
            "velocity": 0.6220472440944882
          },
          {
            "duration": 0.8221145625000048,
            "durationTicks": 171,
            "midi": 51,
            "name": "D#3",
            "ticks": 14918,
            "time": 71.721082125,
            "velocity": 0.5590551181102362
          },
          {
            "duration": 0.09615374999999915,
            "durationTicks": 20,
            "midi": 51,
            "name": "D#3",
            "ticks": 15090,
            "time": 72.54800437499999,
            "velocity": 0.5748031496062992
          },
          {
            "duration": 0.18269212500000265,
            "durationTicks": 38,
            "midi": 51,
            "name": "D#3",
            "ticks": 15111,
            "time": 72.6489658125,
            "velocity": 0.5433070866141733
          },
          {
            "duration": 0.0673076250000122,
            "durationTicks": 14,
            "midi": 59,
            "name": "B3",
            "ticks": 15150,
            "time": 72.83646562499999,
            "velocity": 0.5196850393700787
          },
          {
            "duration": 0.14903831249999655,
            "durationTicks": 31,
            "midi": 60,
            "name": "C4",
            "ticks": 15165,
            "time": 72.90858093749999,
            "velocity": 0.5275590551181102
          },
          {
            "duration": 0.7307684999999964,
            "durationTicks": 152,
            "midi": 51,
            "name": "D#3",
            "ticks": 15197,
            "time": 73.06242693749999,
            "velocity": 0.5905511811023622
          },
          {
            "duration": 0.22115362499999947,
            "durationTicks": 46,
            "midi": 52,
            "name": "E3",
            "ticks": 15351,
            "time": 73.80281081249998,
            "velocity": 0.5748031496062992
          },
          {
            "duration": 0.0528845624999974,
            "durationTicks": 11,
            "midi": 51,
            "name": "D#3",
            "ticks": 15399,
            "time": 74.0335798125,
            "velocity": 0.5511811023622047
          },
          {
            "duration": 0.10096143749998987,
            "durationTicks": 21,
            "midi": 51,
            "name": "D#3",
            "ticks": 15411,
            "time": 74.0912720625,
            "velocity": 0.5590551181102362
          },
          {
            "duration": 0.46153799999999023,
            "durationTicks": 96,
            "midi": 52,
            "name": "E3",
            "ticks": 15433,
            "time": 74.19704118749999,
            "velocity": 0.6377952755905512
          },
          {
            "duration": 0.16346137499999713,
            "durationTicks": 34,
            "midi": 33,
            "name": "A1",
            "ticks": 15533,
            "time": 74.6778099375,
            "velocity": 0.6141732283464567
          },
          {
            "duration": 0.0528845624999974,
            "durationTicks": 11,
            "midi": 62,
            "name": "D4",
            "ticks": 15568,
            "time": 74.84607899999999,
            "velocity": 0.5354330708661418
          },
          {
            "duration": 0.11057681249999973,
            "durationTicks": 23,
            "midi": 45,
            "name": "A2",
            "ticks": 15580,
            "time": 74.90377124999999,
            "velocity": 0.5826771653543307
          },
          {
            "duration": 0.17788443750001193,
            "durationTicks": 37,
            "midi": 51,
            "name": "D#3",
            "ticks": 15604,
            "time": 75.01915574999998,
            "velocity": 0.5905511811023622
          },
          {
            "duration": 0.34134581249999485,
            "durationTicks": 71,
            "midi": 55,
            "name": "G3",
            "ticks": 15642,
            "time": 75.201847875,
            "velocity": 0.5748031496062992
          },
          {
            "duration": 0.3461534999999998,
            "durationTicks": 72,
            "midi": 51,
            "name": "D#3",
            "ticks": 15714,
            "time": 75.548001375,
            "velocity": 0.5669291338582677
          },
          {
            "duration": 0.4182688125000027,
            "durationTicks": 87,
            "midi": 59,
            "name": "B3",
            "ticks": 15787,
            "time": 75.89896256249999,
            "velocity": 0.5275590551181102
          },
          {
            "duration": 0.2980766249999931,
            "durationTicks": 62,
            "midi": 59,
            "name": "B3",
            "ticks": 15875,
            "time": 76.3220390625,
            "velocity": 0.5669291338582677
          },
          {
            "duration": 1.6586521875000102,
            "durationTicks": 345,
            "midi": 57,
            "name": "A3",
            "ticks": 15939,
            "time": 76.62973106249999,
            "velocity": 0.5196850393700787
          },
          {
            "duration": 0.13461525000001018,
            "durationTicks": 28,
            "midi": 57,
            "name": "A3",
            "ticks": 16285,
            "time": 78.29319093749999,
            "velocity": 0.5354330708661418
          },
          {
            "duration": 0.12499987500001453,
            "durationTicks": 26,
            "midi": 59,
            "name": "B3",
            "ticks": 16314,
            "time": 78.43261387499999,
            "velocity": 0.5275590551181102
          },
          {
            "duration": 0.4326918750000033,
            "durationTicks": 90,
            "midi": 59,
            "name": "B3",
            "ticks": 16341,
            "time": 78.56242143749999,
            "velocity": 0.5196850393700787
          },
          {
            "duration": 0.1201921875000096,
            "durationTicks": 25,
            "midi": 50,
            "name": "D3",
            "ticks": 16432,
            "time": 78.99992099999999,
            "velocity": 0.6850393700787402
          },
          {
            "duration": 0.21634593750000874,
            "durationTicks": 45,
            "midi": 51,
            "name": "D#3",
            "ticks": 16458,
            "time": 79.12492087499999,
            "velocity": 0.6692913385826772
          },
          {
            "duration": 0.12499987500000032,
            "durationTicks": 26,
            "midi": 63,
            "name": "D#4",
            "ticks": 16504,
            "time": 79.34607449999999,
            "velocity": 0.6062992125984252
          },
          {
            "duration": 0.3124996874999937,
            "durationTicks": 65,
            "midi": 60,
            "name": "C4",
            "ticks": 16531,
            "time": 79.47588206249999,
            "velocity": 0.5354330708661418
          },
          {
            "duration": 0.5288456250000024,
            "durationTicks": 110,
            "midi": 52,
            "name": "E3",
            "ticks": 16597,
            "time": 79.79318943749999,
            "velocity": 0.5590551181102362
          },
          {
            "duration": 0.6634608749999984,
            "durationTicks": 138,
            "midi": 48,
            "name": "C3",
            "ticks": 16709,
            "time": 80.3316504375,
            "velocity": 0.6220472440944882
          },
          {
            "duration": 0.0865383750000035,
            "durationTicks": 18,
            "midi": 51,
            "name": "D#3",
            "ticks": 16848,
            "time": 80.99991899999999,
            "velocity": 0.5669291338582677
          },
          {
            "duration": 0.28365356250000673,
            "durationTicks": 59,
            "midi": 51,
            "name": "D#3",
            "ticks": 16867,
            "time": 81.09126506249999,
            "velocity": 0.5590551181102362
          },
          {
            "duration": 0.1923074999999841,
            "durationTicks": 40,
            "midi": 59,
            "name": "B3",
            "ticks": 16928,
            "time": 81.384534,
            "velocity": 0.5275590551181102
          },
          {
            "duration": 0.5528840624999987,
            "durationTicks": 115,
            "midi": 51,
            "name": "D#3",
            "ticks": 16969,
            "time": 81.58164918749999,
            "velocity": 0.5748031496062992
          },
          {
            "duration": 0.06249993749999305,
            "durationTicks": 13,
            "midi": 49,
            "name": "C#3",
            "ticks": 17085,
            "time": 82.1393409375,
            "velocity": 0.5748031496062992
          },
          {
            "duration": 0.1057691249999948,
            "durationTicks": 22,
            "midi": 48,
            "name": "C3",
            "ticks": 17099,
            "time": 82.20664856249999,
            "velocity": 0.5433070866141733
          },
          {
            "duration": 0.10576912500000901,
            "durationTicks": 22,
            "midi": 51,
            "name": "D#3",
            "ticks": 17122,
            "time": 82.31722537499999,
            "velocity": 0.5748031496062992
          },
          {
            "duration": 0.23557668750000005,
            "durationTicks": 49,
            "midi": 48,
            "name": "C3",
            "ticks": 17145,
            "time": 82.42780218749999,
            "velocity": 0.5511811023622047
          },
          {
            "duration": 0.0673076250000122,
            "durationTicks": 14,
            "midi": 52,
            "name": "E3",
            "ticks": 17196,
            "time": 82.67299424999999,
            "velocity": 0.5669291338582677
          },
          {
            "duration": 1.283652562499995,
            "durationTicks": 267,
            "midi": 49,
            "name": "C#3",
            "ticks": 17211,
            "time": 82.74510956249999,
            "velocity": 0.5748031496062992
          },
          {
            "duration": 0.23076899999999512,
            "durationTicks": 48,
            "midi": 49,
            "name": "C#3",
            "ticks": 17480,
            "time": 84.0383775,
            "velocity": 0.5511811023622047
          },
          {
            "duration": 0.24999974999998642,
            "durationTicks": 52,
            "midi": 51,
            "name": "D#3",
            "ticks": 17529,
            "time": 84.2739541875,
            "velocity": 0.5590551181102362
          },
          {
            "duration": 0.23557668749998584,
            "durationTicks": 49,
            "midi": 51,
            "name": "D#3",
            "ticks": 17582,
            "time": 84.528761625,
            "velocity": 0.5669291338582677
          },
          {
            "duration": 0.21634593749999453,
            "durationTicks": 45,
            "midi": 54,
            "name": "F#3",
            "ticks": 17632,
            "time": 84.76914599999999,
            "velocity": 0.7007874015748031
          },
          {
            "duration": 0.3990380624999972,
            "durationTicks": 83,
            "midi": 60,
            "name": "C4",
            "ticks": 17681,
            "time": 85.00472268749999,
            "velocity": 0.5354330708661418
          },
          {
            "duration": 0.22596131249999019,
            "durationTicks": 47,
            "midi": 50,
            "name": "D3",
            "ticks": 17765,
            "time": 85.4085684375,
            "velocity": 0.5590551181102362
          },
          {
            "duration": 0.7499992500000019,
            "durationTicks": 156,
            "midi": 51,
            "name": "D#3",
            "ticks": 17814,
            "time": 85.644145125,
            "velocity": 0.5748031496062992
          },
          {
            "duration": 0.12499987500000032,
            "durationTicks": 26,
            "midi": 49,
            "name": "C#3",
            "ticks": 17972,
            "time": 86.40375974999999,
            "velocity": 0.5511811023622047
          },
          {
            "duration": 0.04326918750000175,
            "durationTicks": 9,
            "midi": 50,
            "name": "D3",
            "ticks": 18000,
            "time": 86.53837499999999,
            "velocity": 0.5275590551181102
          },
          {
            "duration": 0.24038437500000498,
            "durationTicks": 50,
            "midi": 51,
            "name": "D#3",
            "ticks": 18010,
            "time": 86.58645187499998,
            "velocity": 0.5826771653543307
          },
          {
            "duration": 0.13461525000001018,
            "durationTicks": 28,
            "midi": 51,
            "name": "D#3",
            "ticks": 18061,
            "time": 86.83164393749999,
            "velocity": 0.5669291338582677
          },
          {
            "duration": 0.06249993749999305,
            "durationTicks": 13,
            "midi": 49,
            "name": "C#3",
            "ticks": 18090,
            "time": 86.97106687499999,
            "velocity": 0.5275590551181102
          },
          {
            "duration": 0.7499992500000019,
            "durationTicks": 156,
            "midi": 59,
            "name": "B3",
            "ticks": 18103,
            "time": 87.03356681249998,
            "velocity": 0.5354330708661418
          },
          {
            "duration": 0.05769225000000233,
            "durationTicks": 12,
            "midi": 63,
            "name": "D#4",
            "ticks": 18260,
            "time": 87.78837374999999,
            "velocity": 0.5984251968503937
          },
          {
            "duration": 1.2067295625000156,
            "durationTicks": 251,
            "midi": 55,
            "name": "G3",
            "ticks": 18273,
            "time": 87.85087368749998,
            "velocity": 0.5433070866141733
          }
        ],
        "endOfTrackTicks": 18524
      }
    ]
  }